<?xml version="1.0" encoding="utf-8"?>
<!-- Generator: Adobe Illustrator 25.0.1, SVG Export Plug-In . SVG Version: 6.00 Build 0)  -->
<svg version="1.0" id="Layer_1" width="500px" height="500px" xmlns="http://www.w3.org/2000/svg" xmlns:xlink="http://www.w3.org/1999/xlink" x="0px" y="0px"
	 viewBox="0 0 865.9 525.4" style="enable-background:new 0 0 865.9 525.4;" xml:space="preserve">
<path d="M492.3,323.2c3-0.5,6.1-0.9,9.1-1.1c8.8-0.2,11.4-2.8,11.5-11.7c0-24.8,0-49.6,0-74.4c0-6.2,0-12.5,0-18.8
	c0-9.6-2.2-11.8-11.6-11.9c-2.7,0-5.4,0-8.1,0c0-0.5,0-1,0-1.5c1.4-0.1,2.9-0.3,4.3-0.3c20.3,0.3,40.8,0,61,1.4
	c8,0.6,16.4,4.3,23.5,8.4c9.7,5.6,12.2,15.3,10.8,26.2c-1.3,9.8-7.5,15.5-15.9,18.9c-6.1,2.4-12.7,3.5-20.3,5.4
	c2.2,0.7,3.7,1.3,5.2,1.6c16.1,4,26.3,13.2,29.8,30.2c1.5,7.3,5.7,14.6,10.4,20.6c5.7,7.3,14.7,6.7,23,4.7c5-1.2,5.5-5.7,5.5-10.2
	c0-26.2,0-52.4,0-78.7c0-5.9,0.1-11.7,0-17.5c-0.2-7-2.6-9.3-9.6-9.4c-3.4,0-6.8,0-10.1-1.2H667c0,0.4,0.1,0.8,0.1,1.2
	c-2.6,0-5.2,0-7.8,0c-9,0-10.9,1.9-10.9,11.1c0,18.8,0,37.5,0,56.3c0,13.5,0,27,0,40.5c0,6.7,2,8.6,8.6,8.8
	c30.9,0.6,47.2-10.6,59.3-41.1c7-17.6,13.5-35.3,20.5-52.9c1.6-4,4.4-7.5,6.4-11.4c2.5-4.8,4.7-9.6,7-14.5h1.2c0.1,1,0.2,2,0.5,2.9
	c7.3,22.5,14.7,45,22.1,67.5c4.3,13.1,8.7,26.3,13.2,39.3c2.2,6.4,6.4,10.7,13.9,10.1c-1,0.4-2,1.2-3,1.2c-15.5,0.1-31.1,0-46.6,0
	l9.8-1.2c6.1-0.8,9.2-4,7.7-9.1c-3.1-11-6.8-21.9-10.2-33c-11.9,0-23.4,0.2-34.8-0.1c-4.2-0.1-6.1,1.4-7.5,5.1
	c-4.7,12.8-9.7,25.6-14.6,38.3H597.6c-11.2-3.5-19.4-10.2-22.7-21.9c-1-3.7-1.9-7.4-2.5-11.2c-3.8-23.2-19.6-29.3-41.7-25.3
	c0,16.2-0.1,32.5,0.1,48.8c0.1,6,2.7,8,8.7,8.4c3.7,0.2,7.3,0.7,11,1.1L492.3,323.2z M530.6,262c7.7,0,14.4,0.5,20.9-0.1
	c11.7-1,18.7-8,21-19.2c2.4-11.8,2.4-23.5-8.2-32c-3-2.4-7.1-3.8-10.9-4.7c-3.2-0.8-6.8-0.6-10.2-0.5c-12.7,0.1-12.7-1.9-12.7,12.8
	C530.6,232.7,530.5,247.2,530.6,262L530.6,262z M740.1,222.9L719,278h38.8C751.9,259.7,746.3,242,740.1,222.9L740.1,222.9z"/>
<path d="M64.9,203.4h57.2l0.1,2c-3.4,0-6.8,0.1-10.3,0c-5.5-0.2-8.1,2.7-8.5,8c-0.1,1-0.2,2-0.2,3c0,31.9,0,63.7,0,95.6
	c0,8.6,1.7,9.5,10.3,10.3c28.5,2.6,45-13,55.5-36.8c8-18.2,14.4-37.1,21.9-55.6c2.1-5.1,5.7-9.6,8.1-14.6c2-4.2,3.4-8.7,5-13.1h2.4
	c3.4,11.3,6.7,22.6,10.3,33.9c7.4,22.9,14.9,45.8,22.4,68.7c0.2,0.8,0.7,1.5,0.9,2.2c2.2,8.5,6.9,14.6,16.1,16.2h-49.6
	c3-0.4,6.1-0.9,9.1-1.2c6.6-0.8,9.6-3.9,7.9-9.9c-3-10.8-6.6-21.3-10.1-32.2c-12.6,0-24.6-0.2-36.6,0.2c-1.8,0.1-4.4,2.5-5.1,4.4
	c-5.1,12.8-9.9,25.8-14.8,38.8c-29.1,0-58.1,0-87.2,0c-1.6,0-3.2-0.8-4.8-1.2c3.6,0,7.3,0.1,10.9,0c7-0.1,9.4-2.5,9.7-9.5
	c0.2-3.2,0-6.5,0-9.7c0-29,0-58.1,0-87.1c0-8.1-2.4-10.5-10.4-10.5c-3.4,0-6.8,0.3-10.2,0.4L64.9,203.4z M174,278.2h38.9
	c-5.9-18.3-11.6-36.1-17.8-55.3C187.8,242.1,180.9,259.9,174,278.2z"/>
<path d="M377.3,323.2c3.5-0.4,6.9-1,10.4-1.1c7.4-0.3,10.2-2.6,11.1-9.9c0.1-1.4,0.2-2.8,0.1-4.2c0-29.6,0-59.3,0-88.9
	c0-11.5-2.2-13.6-13.7-13.6c-2.3,0-4.6,0-6.8-1.4h96l5.2,43l-0.9,0.2c-1.3-4.8-2.4-9.7-4-14.4c-6.7-19.7-17.6-27.5-38.2-27.5
	c-4.8,0-9.7,0.1-14.5,0c-4-0.1-5.9,1.4-5.9,5.6c0.1,16.5,0,33.1,0,50.1c9.4,1.2,18.1,0.8,25.5-5.8c7-6.3,8.2-15.2,10.6-23.6v61.2
	c-3-6.3-5.9-14.9-10.8-22c-5.8-8.2-15.3-8.6-25.3-7.5v17.1c0,11.7,0.1,23.4,0,35.1c0,4.5,1.7,6.7,6.4,6.6c7.5-0.1,15,0.3,22.4-0.1
	c13.6-0.8,22.7-8.9,29.3-19.8c4-6.8,6.6-14.5,10.6-23.4l-6.7,44.4L377.3,323.2z"/>
<path d="M279.2,323.2c3.7-0.4,7.3-1.1,11-1.1c5.8,0.1,8.6-2.7,9.4-8c0.2-1.8,0.3-3.6,0.3-5.4c0-30,0-60,0-90.1
	c0-2.2-0.2-4.4-0.5-6.6c-0.8-4.4-3.4-6.7-8-6.6c-3.7,0.1-7.5,0-11.5,0c0.5-1.1,0.6-1.6,0.8-1.6c21.5,0.3,43.1,0.1,64.6,1.1
	c10.9,0.4,21,5.4,28.2,13.6c11.2,12.7,9.2,30.1-4.7,40.1c-9.3,6.7-20,9.3-31.3,9.2c-6.4,0-12.8,0-19.6,0c0,16.5-0.1,32.1,0.1,47.8
	c0.1,4.6,3.4,6.4,7.9,6.5c3.9,0.1,7.7,0.7,11.6,1.1L279.2,323.2z M317.5,266.3c7.7,0,14.5,0.4,21.3-0.1c11.2-0.9,17.4-6,20-16.9
	c1.3-5.7,1.8-11.5,1.5-17.3c-0.6-17.2-10.5-26.5-27.6-26.6c-3.4,0-6.9,0-10.3,0c-3.2,0-4.9,1.4-4.9,4.7
	C317.5,228.6,317.5,247.1,317.5,266.3z"/>
</svg>
