<?xml version="1.0" encoding="utf-8"?>
<!-- Generator: Adobe Illustrator 26.3.1, SVG Export Plug-In . SVG Version: 6.00 Build 0)  -->
<svg version="1.1" id="Calque_1" width="500px" height="500px" xmlns="http://www.w3.org/2000/svg" xmlns:xlink="http://www.w3.org/1999/xlink" x="0px" y="0px"
	 viewBox="0 0 330 150" enable-background="new 0 0 330 150" xml:space="preserve">
<g>
	<path d="M288,85.6h7l-11.2-21.1H275l-10.8,21.1h7l2-3.9h12.6L288,85.6z M275.8,76.9l3.7-7.3l3.8,7.3H275.8z"/>
	<polygon points="268.3,64.5 243.7,64.5 243.7,69.6 252.7,69.6 252.7,85.5 259.3,85.5 259.3,69.6 268.3,69.6 	"/>
	<path d="M240.6,85.6h7l-11.2-21.1h-8.8L217,85.6h7l2-3.9h12.6L240.6,85.6z M228.5,76.9l3.7-7.3l3.8,7.3H228.5z"/>
	<polygon points="208.7,64.5 208.7,77.5 195.6,64.5 194.6,64.5 189,64.5 187.9,64.5 187.9,85.6 194.6,85.6 194.6,71.5 208.7,85.6 
		215.4,85.6 215.4,64.5 	"/>
	<path d="M171.1,64.1h-2.6c-8,0-14.1,3.2-14.1,10.2v1.4c0,7,6.2,10.2,14.1,10.2h2.6c8,0,14.1-3.2,14.1-10.2v-1.4
		C185.2,67.3,179,64.1,171.1,64.1z M178.3,75.7c0,3.3-3.3,5.1-7.2,5.1h-2.6c-3.9,0-7.2-1.8-7.2-5.1v-1.4c0-3.3,3.3-5.1,7.2-5.1h2.6
		c3.9,0,7.2,1.8,7.2,5.1V75.7z"/>
	<rect x="144.9" y="64.5" width="6.6" height="21.1"/>
	<path d="M128.2,72.1c-4.7,0-5.6-0.6-5.6-1.8c0-1.4,0.9-1.9,5.6-1.9c4.8,0,6.2,1.3,6.2,2.6h6.9c0-4.5-3-7-13.1-7
		c-9.2,0-12.4,2.2-12.5,6.3l0,0c0,0,0,0,0,0.1c0,0,0,0,0,0.1l0,0c0.1,4.1,2.6,6.6,12.5,6.6c4.8,0,7,0.4,7,2.2c0,1.5-1.6,2.2-6.1,2.2
		c-4.9,0-6.4-1.5-6.4-3v-0.3h-7.1v0.3c0,4.9,4,7.6,13.5,7.6c9.7,0,13-2.4,13-6.7C142.2,74.3,140.1,72.1,128.2,72.1z"/>
	<path d="M99.9,72.1c-4.7,0-5.6-0.6-5.6-1.8c0-1.4,0.9-1.9,5.6-1.9c4.8,0,6.2,1.3,6.2,2.6h6.9c0-4.5-3-7-13.1-7
		c-9.2,0-12.4,2.2-12.5,6.3l0,0c0,0,0,0,0,0.1c0,0,0,0,0,0.1l0,0c0.1,4.1,2.6,6.6,12.5,6.6c4.8,0,7,0.4,7,2.2c0,1.5-1.6,2.2-6.1,2.2
		c-4.9,0-6.4-1.5-6.4-3v-0.3h-7.1v0.3c0,4.9,4,7.6,13.5,7.6c9.7,0,13-2.4,13-6.7C113.9,74.3,111.8,72.1,99.9,72.1z"/>
	<path d="M81,85.6h7L76.9,64.5h-8.8L57.3,85.6h7l2-3.9H79L81,85.6z M68.9,76.9l3.7-7.3l3.8,7.3H68.9z"/>
	<path d="M50.8,64.5H35v21.1h6.6v-7.1h9.1c6.3,0,9.6-2.1,9.6-6.8v-0.5C60.4,66.6,57,64.5,50.8,64.5z M53.5,71.8c0,1.4-1.7,2-2.7,2
		h-9.1v-4.5h9.1c1,0,2.7,0.6,2.7,2C53.5,71.3,53.5,71.8,53.5,71.8z"/>
</g>
</svg>
