<?xml version="1.0" standalone="no"?>
<!DOCTYPE svg PUBLIC "-//W3C//DTD SVG 20010904//EN"
 "http://www.w3.org/TR/2001/REC-SVG-20010904/DTD/svg10.dtd">
<svg version="1.0" xmlns="http://www.w3.org/2000/svg"
 width="450.000000pt" height="450.000000pt" viewBox="0 0 450.000000 450.000000"
 preserveAspectRatio="xMidYMid meet">

<g transform="translate(0.000000,450.000000) scale(0.100000,-0.100000)"
fill="#000000" stroke="none">
<path d="M1860 2950 l0 -390 385 0 385 0 0 390 0 390 -385 0 -385 0 0 -390z
m246 359 c84 -22 122 -110 73 -173 -25 -32 -21 -32 26 -4 l37 21 45 -22 45
-22 -21 27 c-32 40 -28 98 7 134 56 56 145 63 212 17 54 -36 73 -70 78 -137 6
-79 -29 -152 -112 -236 -58 -57 -219 -164 -248 -164 -7 0 -31 9 -52 21 l-39
20 22 -27 c30 -38 28 -94 -4 -133 -69 -82 -218 -60 -274 40 -60 107 11 259
180 384 l57 42 -44 0 c-33 0 -51 6 -69 23 -31 29 -33 75 -6 90 26 13 31 13 31
-4 0 -8 4 -18 10 -21 15 -10 50 14 50 34 0 53 -91 63 -140 16 -30 -28 -32 -34
-28 -85 3 -39 12 -67 33 -98 l28 -43 -23 -24 c-19 -20 -26 -23 -38 -12 -30 24
-62 110 -62 165 0 80 36 134 110 166 43 19 59 19 116 5z m479 -442 c68 -138
-8 -287 -147 -287 -106 0 -180 91 -138 171 26 48 118 64 164 28 29 -23 35 -69
11 -89 -12 -10 -18 -8 -34 11 -19 23 -19 24 -40 5 -28 -25 -26 -42 4 -62 30
-20 88 -14 116 12 48 43 45 115 -9 196 l-24 38 23 24 c29 30 38 24 74 -47z"/>
<path d="M2410 3257 c-33 -16 -38 -52 -10 -67 16 -9 25 -8 36 0 7 7 11 16 8
21 -7 12 3 11 27 -1 27 -15 25 -61 -6 -90 -18 -17 -36 -23 -69 -23 l-44 0 37
-25 c20 -14 46 -32 58 -42 l22 -17 -29 -28 -29 -28 -38 30 c-21 17 -57 42 -80
57 -41 27 -42 27 -75 10 -57 -29 -174 -122 -212 -169 -61 -74 -83 -155 -56
-206 13 -23 61 -49 92 -49 53 0 90 58 51 78 -22 12 -43 5 -43 -14 0 -17 -22
-18 -38 -2 -20 20 -13 58 16 84 23 22 34 25 75 21 26 -2 47 -3 47 -2 0 0 -27
19 -60 40 -33 21 -60 44 -60 50 0 6 10 21 23 33 l22 21 79 -55 c44 -29 85 -54
90 -54 20 0 136 81 195 136 125 116 151 250 56 290 -42 17 -53 17 -85 1z"/>
<path d="M205 2415 c13 -11 48 -80 81 -155 31 -74 60 -139 64 -143 4 -4 32 57
64 135 31 79 66 150 77 160 10 9 19 18 19 20 0 1 -20 3 -45 3 -25 0 -45 -3
-45 -7 0 -5 7 -8 15 -8 8 0 15 -7 15 -15 0 -17 -69 -195 -80 -208 -4 -5 -28
40 -53 100 -45 106 -46 108 -26 123 18 14 15 15 -45 15 l-65 0 24 -20z"/>
<path d="M2150 2429 c0 -4 8 -9 18 -11 12 -4 39 -53 81 -152 35 -80 67 -146
71 -146 4 0 33 63 65 141 32 77 66 146 76 152 29 18 23 23 -26 22 -49 0 -53
-2 -29 -19 14 -11 11 -24 -27 -119 -24 -58 -47 -103 -50 -99 -4 4 -26 51 -50
106 -39 90 -42 99 -26 111 9 7 17 14 17 16 0 2 -27 4 -60 4 -33 0 -60 -3 -60
-6z"/>
<path d="M2772 2314 c-39 -27 -28 -59 34 -105 37 -27 54 -46 50 -56 -3 -8 -6
-17 -6 -19 0 -7 -54 -4 -66 4 -6 4 -16 16 -22 27 -10 18 -11 17 -12 -12 0 -18
3 -32 8 -31 4 1 22 -2 40 -6 45 -11 82 14 82 54 0 26 -8 36 -55 65 -30 20 -55
39 -55 43 1 40 67 42 87 2 l13 -25 0 31 c0 27 -4 32 -31 38 -42 8 -41 8 -67
-10z"/>
<path d="M591 2299 c-27 -70 -74 -165 -84 -171 -7 -5 -1 -8 15 -8 20 0 26 4
22 14 -11 28 15 56 50 56 39 0 61 -21 53 -50 -4 -17 0 -20 31 -20 31 0 33 2
20 13 -9 6 -31 48 -49 92 -39 97 -45 105 -58 74z m24 -59 c20 -39 20 -40 -20
-40 l-35 0 17 35 c9 19 18 35 20 35 1 0 9 -13 18 -30z"/>
<path d="M803 2309 c14 -8 17 -25 17 -94 0 -57 -4 -85 -12 -88 -7 -3 0 -6 17
-6 22 -1 26 2 17 11 -13 13 -17 138 -4 137 4 0 34 -34 67 -76 l60 -75 3 93 c2
59 7 96 15 101 7 5 0 7 -18 7 -16 0 -24 -3 -17 -6 13 -5 18 -133 5 -132 -5 0
-32 31 -62 70 -42 54 -59 69 -80 69 -22 -1 -24 -2 -8 -11z"/>
<path d="M1107 2310 c20 -8 22 -14 17 -87 -3 -43 -7 -84 -9 -90 -3 -8 5 -13
23 -13 18 0 23 3 14 9 -9 5 -12 28 -10 77 l3 68 60 -76 c33 -43 63 -77 68 -78
4 0 7 42 7 94 0 66 4 96 13 99 6 3 1 6 -13 6 -25 1 -25 1 -20 -69 3 -38 3 -70
0 -70 -3 0 -30 31 -60 69 -46 59 -60 70 -85 70 -27 0 -28 -1 -8 -9z"/>
<path d="M1408 2311 c10 -6 13 -32 10 -100 l-3 -91 30 1 c17 0 24 3 18 6 -9 3
-13 32 -13 93 0 61 4 90 13 93 6 3 -6 6 -28 6 -25 0 -35 -2 -27 -8z"/>
<path d="M1584 2307 c15 -11 17 -26 14 -100 -3 -81 -2 -87 17 -87 15 0 16 3 7
12 -13 13 -17 138 -4 138 4 -1 34 -35 67 -76 l60 -76 3 88 c2 48 8 94 14 101
8 10 4 13 -18 13 -19 0 -25 -3 -16 -9 9 -5 12 -27 10 -71 l-3 -64 -59 72 c-45
56 -64 72 -84 72 -24 0 -24 -1 -8 -13z"/>
<path d="M1931 2237 c-19 -45 -41 -90 -49 -99 -14 -17 -13 -18 14 -18 21 0 25
3 15 9 -12 8 -12 13 3 35 32 49 122 23 102 -30 -4 -10 3 -14 24 -14 l29 0 -23
43 c-13 23 -34 68 -47 100 -12 31 -25 57 -28 57 -3 0 -21 -37 -40 -83z m48
-35 c-42 -7 -49 0 -33 38 l16 35 18 -35 c18 -34 18 -35 -1 -38z"/>
<path d="M2488 2311 c10 -6 13 -32 10 -100 l-3 -91 66 0 c52 0 68 4 73 16 10
26 7 28 -13 10 -12 -11 -31 -16 -53 -14 -31 3 -33 5 -36 46 -3 42 -3 42 32 42
19 0 37 -6 39 -12 3 -7 5 1 5 17 0 17 -2 24 -5 18 -2 -7 -20 -13 -39 -13 -33
0 -34 1 -34 40 0 40 0 40 38 40 21 0 43 -5 50 -12 9 -9 12 -8 12 5 0 15 -11
17 -77 17 -46 0 -73 -4 -65 -9z"/>
<path d="M2998 2313 c8 -3 12 -32 12 -93 0 -61 -4 -90 -12 -93 -7 -3 5 -5 27
-5 22 0 34 2 28 5 -8 2 -13 22 -13 44 0 37 2 39 30 39 39 0 73 33 65 63 -11
35 -35 47 -94 46 -31 0 -50 -3 -43 -6z m90 -15 c27 -27 7 -78 -30 -78 -15 0
-18 8 -18 45 0 37 3 45 18 45 10 0 23 -5 30 -12z"/>
<path d="M3238 2313 c8 -3 12 -32 12 -93 0 -61 -4 -90 -12 -93 -7 -3 21 -6 63
-6 63 -1 78 2 83 15 9 23 1 28 -14 9 -7 -9 -29 -15 -51 -15 l-39 0 0 45 c0 43
1 45 30 45 17 0 33 -7 39 -17 8 -14 10 -10 10 22 0 32 -2 36 -10 23 -6 -11
-22 -18 -39 -18 -28 0 -30 2 -30 40 0 40 0 40 40 40 27 0 42 -6 49 -17 9 -16
10 -16 11 5 0 21 -3 22 -77 21 -43 0 -72 -3 -65 -6z"/>
<path d="M3488 2313 c8 -3 12 -32 12 -93 0 -61 -4 -90 -12 -93 -7 -3 5 -5 27
-5 22 0 34 2 28 5 -18 7 -17 83 0 83 8 0 28 -20 46 -45 25 -35 38 -45 59 -44
25 0 25 1 7 10 -11 6 -32 28 -48 49 -26 37 -27 39 -7 45 28 9 37 51 15 75 -14
16 -31 20 -79 19 -34 0 -55 -3 -48 -6z m100 -15 c7 -7 12 -19 12 -27 0 -21
-30 -51 -52 -51 -15 0 -18 8 -18 45 0 40 2 45 23 45 13 0 28 -5 35 -12z"/>
<path d="M3768 2308 c16 -16 16 -160 0 -176 -9 -9 -3 -12 27 -12 26 0 35 3 27
9 -10 6 -13 32 -10 100 l3 91 -29 0 c-23 0 -27 -3 -18 -12z"/>
<path d="M3933 2313 c19 -5 19 -2 17 -103 -1 -45 -6 -78 -13 -82 -7 -4 4 -8
23 -8 22 0 30 3 22 9 -9 5 -12 28 -10 75 l3 68 60 -76 c33 -41 62 -75 65 -76
3 0 7 41 9 92 1 51 5 96 7 100 3 4 -3 8 -13 8 -16 0 -18 -8 -15 -72 2 -47 0
-69 -6 -63 -5 6 -33 38 -61 73 -42 50 -57 62 -79 61 -17 -1 -20 -3 -9 -6z"/>
<path d="M4238 2313 c8 -3 12 -32 12 -93 0 -61 -4 -90 -12 -93 -7 -3 5 -5 27
-5 22 0 34 2 28 5 -9 3 -13 32 -13 93 0 61 4 90 13 93 6 3 -6 5 -28 5 -22 0
-34 -2 -27 -5z"/>
<path d="M1500 1944 c0 -30 5 -54 10 -54 6 0 10 23 10 51 0 36 4 49 13 46 6
-2 12 -14 11 -26 -1 -23 11 -28 19 -8 8 21 -8 39 -37 42 -25 3 -26 2 -26 -51z"/>
<path d="M2200 1945 c0 -30 5 -55 10 -55 6 0 10 23 10 50 0 28 4 50 9 50 17 0
23 -20 11 -35 -10 -12 -9 -20 4 -40 9 -14 22 -25 28 -25 6 0 3 9 -8 21 -16 17
-16 23 -5 41 12 19 11 23 -5 35 -10 7 -26 13 -36 13 -15 0 -18 -9 -18 -55z"/>
<path d="M2595 1944 c0 -30 3 -54 8 -54 4 0 7 22 7 49 0 28 -3 52 -7 54 -5 3
-8 -19 -8 -49z"/>
<path d="M2939 1984 c-11 -14 -8 -20 21 -45 30 -24 33 -30 20 -40 -13 -9 -13
-10 0 -6 26 7 23 42 -5 57 -26 14 -34 40 -12 40 7 0 18 -5 25 -12 8 -8 12 -8
12 -1 0 10 -22 23 -40 23 -4 0 -14 -7 -21 -16z"/>
<path d="M1868 1985 c-7 -7 33 -95 44 -95 4 0 -2 21 -13 47 -23 54 -24 55 -31
48z"/>
<path d="M1846 1944 c-4 -9 -4 -19 -1 -22 2 -3 7 3 11 12 4 9 4 19 1 22 -2 3
-7 -3 -11 -12z"/>
<path d="M1825 1900 c-3 -5 -1 -10 4 -10 6 0 11 5 11 10 0 6 -2 10 -4 10 -3 0
-8 -4 -11 -10z"/>
<path d="M2935 1900 c3 -5 11 -10 16 -10 6 0 7 5 4 10 -3 6 -11 10 -16 10 -6
0 -7 -4 -4 -10z"/>
</g>
</svg>
