<?xml version="1.0" encoding="UTF-8"?>
<!-- Generator: Adobe Illustrator 21.1.0, SVG Export Plug-In . SVG Version: 6.00 Build 0)  -->
<svg version="1.1" id="Calque_1" xmlns="http://www.w3.org/2000/svg" xmlns:xlink="http://www.w3.org/1999/xlink" x="0px" y="0px" viewBox="0 0 670.8 113" style="enable-background:new 0 0 670.8 113;" xml:space="preserve">
<style type="text/css">
	.st0{fill:#000000;}
</style>
<path class="st0" d="M9.3,0c0,0,0,96.4,0,96.8h32c-1.9,2.7-7.2,3.5-7.2,3.5H0V0L9.3,0z"/>
<path class="st0" d="M638.8,15.3c0,0,0,82.3,0,82.8h32c-1.9,2.7-7.2,3.5-7.2,3.5h-34.1V15.3L638.8,15.3z"/>
<path class="st0" d="M95.3,101.6c9.1-2.9,17.6-11.9,18.3-21.7c1.4-8.9-1.8-17.6-9.2-23.6c-9.7-9.5-28-9.6-29.8-25.6  c-0.5-4.9,1.7-9.5,5.9-12.2c5.5-2.4,13-3,18,1.1c2.3,1.6,4.5,3.8,7,5.7c0,0-0.8-1.9-2.4-4.2c-1.5-2.2-3.4-3.8-4.8-4.9  c-1.4-1.1-3.9-2.1-6.9-2.6c-7.6-1.7-14.3,1.8-19,8c-4.1,5.7-4.8,14.5-1.4,20.3c6.5,11.9,20,13.5,29,22c5.7,5.4,7.2,13.8,5.8,21.1  c-1.5,5.6-6.2,11.6-11.7,13.7c-11.6,4.3-22.3-2.3-29.3-10.6l0.4,1.8c1.2,2.7,2.8,3.9,4,5.3C69.3,95.2,80.8,106.5,95.3,101.6z"/>
<path class="st0" d="M132.6,95.9l0.3-46.7c0-1.3,0.1-1,0.1-2c0,0,24.6-0.3,26.9-0.8c2.3-0.5,2.1-1.8,2.1-1.8h-29V18.1l1.1,0  c5.3,0,10.6,0,15.5,0h8.9c0,0,3.4,0.1,5.3-2.8h-39.3c0,1.7,0,2.9,0,4.6v72.8v8.6h37.2h1.8c0,0-0.8-2-5.4-3.1h-25.6V95.9z"/>
<path class="st0" d="M582,95.9l0.3-46.7c0-1.3,0.1-1,0.1-2c0,0,24.6-0.3,26.9-0.8c2.3-0.5,2.1-1.8,2.1-1.8h-29V18.1l1.1,0  c5.3,0,10.6,0,15.5,0h8.9c0,0,3.4,0.1,5.3-2.8h-39.3c0,1.7,0,2.9,0,4.6v72.8v8.6h37.2h1.8c0,0-0.8-2-5.4-3.1H582V95.9z"/>
<path class="st0" d="M220.9,103.5c-16.1-10-24.9-28.3-24-46.7h0c0-0.1,0-0.2,0-0.3c0-0.1,0-0.2,0-0.3h0c-0.9-18.3,7.9-36.7,24-46.7  c32.6-17.4,61.7,3,61.7,3s-6.1-5.3-14.3-8.6c-14.1-3.8-29.5-5.7-43.7,0c-14.9,4.6-27.1,18.6-33.3,32.4c-2.8,6.3-4.1,13.1-4.1,20h0  c0,0.1,0,0.2,0,0.3c0,0.1,0,0.2,0,0.3h0c0,6.9,1.3,13.7,4.1,20c6.2,13.8,18.4,27.8,33.3,32.4c14.2,5.6,29.6,4.3,43.7,0.2  c9.7-3.8,14.3-8.8,14.3-8.8S253.6,120.9,220.9,103.5z"/>
<rect x="48.1" y="15.7" class="st0" width="8.2" height="85.7"/>
<polygon class="st0" points="338.3,15.6 338.3,49.3 297.9,49.3 297.9,15.6 289.8,15.6 289.8,99.5 297.9,99.5 297.9,51.7 338.3,51.7   338.3,99.5 346.4,99.5 346.4,15.6 "/>
<g>
	<path class="st0" d="M389.5,25.3c-0.1-0.3-0.3-0.7-0.4-1.2c-2.5-9.6-8.2-9.6-8.2-9.6l-26.2,85.6h3.9l8-25.8h29.1l7.8,25.8h7.7   L389.5,25.3z M367.5,71.5l13.8-44.6l13.5,44.6H367.5z"/>
</g>
<g>
	<path class="st0" d="M439.9,55.3l-2.6-3.1l-0.4-0.4c0,0,1.3,0.2,2.4,0.2c0,0,0,0,0,0c8.5-0.6,16.6-2.8,21.6-10.1   c3.2-4,3-9.5,1.6-14.1c-7.6-16.1-27.3-13-42.3-12.9l-0.1,0.4v4l0.1,74.1c0,0.8,0.1,1.3-0.1,1.9v5.1h8v-3.8c0,0,0-0.1,0-0.2   c0.1-7.4-0.1-15.2-0.1-22.9l0,0V53.4v-0.6v-0.5l5.3,7.2L460,95.2l2.9,3c3.3,2.2,6.7,2.6,10.3,2.2l0.5-0.1   C461.9,85.5,451.4,70.3,439.9,55.3z M430.2,48.7h-1.9v-3.9l-0.1-17.6h0v-6.4l0-0.8c0,0,0,0,0,0v-2.2h7.3c0.5,0,1,0,1.6,0h0.5v0   c6.5,0.3,12.5,2.7,15.7,8.9c2.1,4.2,2.2,9.4,0.1,13.7C449,48.8,439,49.1,430.2,48.7z"/>
</g>
<g>
	<g>
		<path class="st0" d="M546.9,30.9l0-2.7l-1.5,3.7c-10.1,22.5-18.6,45.6-28.4,68c-0.3,0.7-1,0.7-1.3,0.4    c-9.4-19-16.8-38.7-25.8-57.7c-0.7-1.6-1.4-3.2-2-4.8v-0.1l-4.3-11.3v12l0,0v51.7c0,0.3,0.1,0.7,0.1,1v8.7h-3.6V15.5h6.2l1.1,2    l15.3,34.2l15.2,34.2c0,0,0,0,0,0l0.6,1.4l7-16.8c5.7-13.5,11.3-27.1,16.9-40.8l5.6-13.4l0.3-0.8l7,0.1V100h-8.3L546.9,30.9z"/>
		<path class="st0" d="M546.9,30.9l0-2.7l-1.5,3.7c-10.1,22.5-18.6,45.6-28.4,68c-0.3,0.7-1,0.7-1.3,0.4    c-9.4-19-16.8-38.7-25.8-57.7c-0.7-1.6-1.4-3.2-2-4.8v-0.1l-4.3-11.3v12l0,0v51.7c0,0.3,0.1,0.7,0.1,1v8.7h-3.6V15.5h6.2l1.1,2    l15.3,34.2l15.2,34.2c0,0,0,0,0,0l0.6,1.4l7-16.8c5.7-13.5,11.3-27.1,16.9-40.8l5.6-13.4l0.3-0.8l7,0.1V100h-8.3L546.9,30.9z"/>
	</g>
</g>
</svg>